# xmcd
#
# Track frame offsets:
#	150
#	12205
#	26153
#	45675
#	66126
#	82509
#	104997
#	124462
#
# Disc length: 1990 seconds
#
# Revision: 14
# Processed by: cddbd v1.5.2PL0 Copyright (c) Steve Scherf et al.
# Submitted via: Jack! The Knife 20 Magnifico
#
DISCID=6707c408
DTITLE=Led Zeppelin - Coda
DYEAR=1982
DGENRE=Hard Rock
TTITLE0=We're Gonna Groove
TTITLE1=Poor Tom
TTITLE2=I Can't Quit You Baby
TTITLE3=Walter's Walk
TTITLE4=Ozone Baby
TTITLE5=Darlene
TTITLE6=Bonzo's Montreux
TTITLE7=Wearing And Tearing
EXTD=Jimmy Page
EXTT0=King, Bethea
EXTT1=Page, Plant
EXTT2=Wilie Dixon
EXTT3=Page, Plant
EXTT4=Page, Plant
EXTT5=Bonham, Jones, Page, Plant
EXTT6=John Bonham
EXTT7=Page, Plant
PLAYORDER=
